<mxfile host="app.diagrams.net" modified="2021-10-05T10:23:36.464Z" agent="5.0 (Windows NT 10.0; Win64; x64) AppleWebKit/537.36 (KHTML, like Gecko) Chrome/94.0.4606.71 Safari/537.36" etag="j50lEwHFaju3zjKSBE5B" version="15.4.1" type="github">
  <diagram id="OcJFh2Heht5LoRukSj09" name="Page-1">
    <mxGraphModel dx="706" dy="1594" grid="1" gridSize="10" guides="1" tooltips="1" connect="1" arrows="1" fold="1" page="1" pageScale="1" pageWidth="850" pageHeight="1100" math="0" shadow="0">
      <root>
        <mxCell id="0" />
        <mxCell id="1" parent="0" />
        <mxCell id="mhCUlwxRngzx9CdpR7tA-1" value="" style="rounded=0;whiteSpace=wrap;html=1;" vertex="1" parent="1">
          <mxGeometry x="225" y="-1020" width="400" height="240" as="geometry" />
        </mxCell>
        <mxCell id="mhCUlwxRngzx9CdpR7tA-2" value="MongoDB" style="rounded=0;whiteSpace=wrap;html=1;" vertex="1" parent="1">
          <mxGeometry x="480" y="-990" width="120" height="60" as="geometry" />
        </mxCell>
        <mxCell id="mhCUlwxRngzx9CdpR7tA-3" value="EXPRESS" style="rounded=0;whiteSpace=wrap;html=1;" vertex="1" parent="1">
          <mxGeometry x="260" y="-990" width="120" height="60" as="geometry" />
        </mxCell>
        <mxCell id="mhCUlwxRngzx9CdpR7tA-4" value="AWS" style="rounded=0;whiteSpace=wrap;html=1;" vertex="1" parent="1">
          <mxGeometry x="225" y="-840" width="120" height="60" as="geometry" />
        </mxCell>
      </root>
    </mxGraphModel>
  </diagram>
</mxfile>
